<svg id="Layer_1" data-name="Layer 1" xmlns="http://www.w3.org/2000/svg" viewBox="0 0 1059.5 881.68"><defs><style>.cls-1{fill:#5f82c0;}.cls-2{fill:#ecb941;}.cls-3{fill:#982e22;}</style></defs><title>Logo 3</title><path class="cls-1" d="M258.84,670.56c-.38,0-.77,0-1.18,0-4.28.36-7.56,2.62-7.53,4.34a.81.81,0,0,0,0,.16c.21,1.47,3.12,3.1,7,3.1a11.57,11.57,0,0,0,1.17-.05c4.29-.35,7.58-2.63,7.54-4.35a.81.81,0,0,0,0-.15C265.59,672.18,262.67,670.56,258.84,670.56Z" transform="translate(-220.25 -303.36)"/><path class="cls-1" d="M297.39,667.33a6.68,6.68,0,0,0,2.14-5.38c-.3-3.69-4-6.6-8.49-6.6l-.87,0a9.92,9.92,0,0,0-5.94,2.56,6.74,6.74,0,0,0-2.23,5.47c.3,3.69,4,6.6,8.49,6.6a8.77,8.77,0,0,0,.88,0A9.77,9.77,0,0,0,297.39,667.33Z" transform="translate(-220.25 -303.36)"/><path class="cls-1" d="M328.4,656.86a13,13,0,0,0,8.17-3.68,9.54,9.54,0,0,0,2.89-7.51c-.42-5.2-5.52-9.29-11.6-9.29-.37,0-.76,0-1.15,0-6.56.55-11.52,5.56-11.06,11.2.42,5.2,5.53,9.28,11.6,9.28C327.62,656.91,328,656.89,328.4,656.86Z" transform="translate(-220.25 -303.36)"/><path class="cls-1" d="M522.3,524.87a53.9,53.9,0,0,0-69.58-43.73,62.06,62.06,0,0,0-104.41-17.91,61.25,61.25,0,0,0-22.78-4.33,62.19,62.19,0,0,0-61.71,55.22,45.47,45.47,0,0,0-43.57,45.38,45.3,45.3,0,0,0,8.92,27v572A26.55,26.55,0,0,0,255.72,1185H521.19a26.55,26.55,0,0,0,26.55-26.55V595.92A44.5,44.5,0,0,0,554,584.19a45.43,45.43,0,0,0-31.71-59.32ZM258.87,685.34c-.6,0-1.19.07-1.78.07-7.72,0-13.67-4.12-14.14-9.8a9.62,9.62,0,0,1,3.58-8,18.16,18.16,0,0,1,10.53-4.17c.6,0,1.2-.07,1.8-.07,7.71,0,13.66,4.12,14.14,9.79a9.71,9.71,0,0,1-3.59,8A18.21,18.21,0,0,1,258.87,685.34Zm246,176.31H428.57V789.31c0-32.24-15.79-42.1-40.12-42.1s-40.12,9.86-40.12,42.1v252.54c0,32.22,15.79,42.08,40.12,42.08s40.12-9.86,40.12-42.08V958.32h76.28v95.36c0,71-46,97.33-115.74,97.33H387.8c-69.71,0-115.75-25.65-115.75-97.33V777.47c0-68.41,46-97.34,115.75-97.34h1.31c69.71,0,115.74,28.93,115.74,97.34ZM274.81,664c-.65-8,6-15.06,14.76-15.79a14.69,14.69,0,0,1,1.47-.06c8.18,0,15.07,5.8,15.68,13.22.65,8-6,15.06-14.76,15.78a14.42,14.42,0,0,1-1.45.06C282.32,677.21,275.42,671.4,274.81,664Zm33.65-15.78a16.58,16.58,0,0,1,4.59-12.74,19.91,19.91,0,0,1,13.07-6.22c.58,0,1.16-.07,1.74-.07,9.8,0,18.05,7,18.79,15.88.78,9.6-7.14,18.11-17.66,19-.58,0-1.16.07-1.74.07C317.46,664.11,309.2,657.13,308.46,648.22Zm233-68.51A32.13,32.13,0,0,1,511.25,601a31.79,31.79,0,0,1-14.17-3.28l-5.61-2.77-3.11,5.42A32.06,32.06,0,0,1,444.16,612l-3.94-2.34-3.6,2.85A66.92,66.92,0,0,1,394.79,627a67.78,67.78,0,0,1-49.61-21.73l-4.24-4.59-4.85,3.94a31.74,31.74,0,0,1-20.18,7.15,32.14,32.14,0,0,1-29.38-19.17l-2.63-6-6,2.49a31.67,31.67,0,0,1-12.21,2.43,32.16,32.16,0,0,1-30.21-21.26,31.67,31.67,0,0,1-1.88-10.83,32,32,0,0,1,35.77-31.87l7.43.84V521a48.8,48.8,0,0,1,48.75-48.76,48.21,48.21,0,0,1,21.77,5.14l5,2.52,3.33-4.55a48.75,48.75,0,0,1,86.51,16.28l2.06,7.8,7.27-3.49a40.53,40.53,0,0,1,58,34.83l.24,5.63,5.59.7a32.08,32.08,0,0,1,26.16,42.62Z" transform="translate(-220.25 -303.36)"/><path class="cls-2" d="M887.2,546.73H835.08a97.32,97.32,0,0,0,5.86-9.81,79.86,79.86,0,0,0,3.7-7.89,97.69,97.69,0,1,0-180.35,0,79.86,79.86,0,0,0,3.7,7.89,94.42,94.42,0,0,0,5.9,9.81H621.73a26.58,26.58,0,0,0-26.57,26.57v585.17A26.58,26.58,0,0,0,621.73,1185H887.2a26.56,26.56,0,0,0,26.54-26.57V573.3A26.56,26.56,0,0,0,887.2,546.73Zm-218-55.19A85.3,85.3,0,1,1,831.06,529a87.18,87.18,0,0,1-11.59,17.74,82.91,82.91,0,0,1-8.94,9L809.14,557l-6.53,22.76-13.16,45.53h-70L699.76,557l-1.36-1.19a89.67,89.67,0,0,1-8.94-9,85.89,85.89,0,0,1-7.19-9.85,78.73,78.73,0,0,1-4.4-7.89A85,85,0,0,1,669.17,491.54Zm50,153.89V633h70.56v4.64h0v7.75Zm60.12,2.66c0,10.68-11.1,19.34-24.83,19.34s-24.82-8.66-24.82-19.34ZM871.84,870.2c0,69.72-46,97.33-115.73,97.33H713.37v178.23H637.05V685.37H756.11c69.72,0,115.73,27.65,115.73,97.37Z" transform="translate(-220.25 -303.36)"/><path class="cls-2" d="M753.48,752.47H713.36v148h40.12c25,0,42.08-9.21,42.08-42.1V794.57C795.56,761.68,778.46,752.47,753.48,752.47Z" transform="translate(-220.25 -303.36)"/><path class="cls-2" d="M815.78,491.53h12.4a73.81,73.81,0,0,0-73.72-73.71v12.4A61.38,61.38,0,0,1,815.78,491.53Z" transform="translate(-220.25 -303.36)"/><path class="cls-2" d="M596.51,514.81c.43,3,1,5.94,1.56,8.88l51.16-9c-.65-2.91-1.17-5.88-1.57-8.88Z" transform="translate(-220.25 -303.36)"/><path class="cls-2" d="M649.23,468.4l-51.18-9c-.6,2.93-1.13,5.89-1.56,8.88l51.17,9Q648.26,472.78,649.23,468.4Z" transform="translate(-220.25 -303.36)"/><path class="cls-2" d="M663.49,433.8l-45-25.95c-1.59,2.56-3.1,5.15-4.53,7.8l45,26Q661.07,437.61,663.49,433.8Z" transform="translate(-220.25 -303.36)"/><path class="cls-2" d="M688.73,406.18l-33.37-39.77q-3.52,2.8-6.9,5.81L681.82,412Q685.15,408.93,688.73,406.18Z" transform="translate(-220.25 -303.36)"/><path class="cls-2" d="M721.87,388.83,704.1,340q-4.29,1.42-8.46,3.09l17.77,48.82C716.17,390.76,719,389.73,721.87,388.83Z" transform="translate(-220.25 -303.36)"/><path class="cls-2" d="M759,383.9v-52c-1.5-.05-3-.07-4.52-.07s-3,0-4.49.07v52c1.5-.06,3-.1,4.5-.1S757.47,383.84,759,383.9Z" transform="translate(-220.25 -303.36)"/><path class="cls-2" d="M813.28,343.09c-2.78-1.11-5.6-2.13-8.45-3.08l-17.77,48.82c2.87.9,5.7,1.93,8.46,3.08Z" transform="translate(-220.25 -303.36)"/><path class="cls-2" d="M860.45,372.23c-2.24-2-4.54-3.93-6.89-5.8L820.2,406.18q3.59,2.74,6.91,5.8Z" transform="translate(-220.25 -303.36)"/><path class="cls-2" d="M850,441.61l45-25.95q-2.16-4-4.52-7.81l-45,25.95Q847.85,437.61,850,441.61Z" transform="translate(-220.25 -303.36)"/><path class="cls-2" d="M859.7,514.67l51.15,9c.61-2.94,1.13-5.91,1.56-8.88l-51.15-9C860.87,508.79,860.35,511.76,859.7,514.67Z" transform="translate(-220.25 -303.36)"/><path class="cls-2" d="M861.26,477.28l51.17-9c-.43-3-1-5.95-1.56-8.88l-51.17,9Q860.68,472.78,861.26,477.28Z" transform="translate(-220.25 -303.36)"/><path class="cls-3" d="M1190.17,727.51H1152c-13.42,0-19.6,7.62-19.6,19.6v25.06h77.33V747.11C1209.77,735.13,1203.6,727.51,1190.17,727.51Z" transform="translate(-220.25 -303.36)"/><path class="cls-3" d="M1253.21,546.75h-23.63a204.44,204.44,0,0,0,6.71-130.9c-10.7-38.14-33.72-70.39-64.84-90.83-31.4-20.63-67.27-26.78-101-17.33S1009.3,341.06,993.21,375c-16,33.64-18.83,73.17-8.15,111.31a199.47,199.47,0,0,0,28.44,60.43H987.73a26.55,26.55,0,0,0-26.55,26.55v585.18A26.55,26.55,0,0,0,987.73,1185h265.48a26.55,26.55,0,0,0,26.54-26.55V573.3A26.55,26.55,0,0,0,1253.21,546.75Zm-8.71,100.48c-7.89,36.34-77.14-1-74-15.54S1253.86,604.16,1244.5,647.23ZM997.91,482.71c-9.83-35-7.22-71.26,7.34-102,14.42-30.42,38.85-51.79,68.82-60.19a102,102,0,0,1,27.75-3.83c21.31,0,42.75,6.61,62.32,19.46,28.42,18.68,49.49,48.26,59.31,83.3a188.74,188.74,0,0,1-7.23,124.78c-17.88,44.06-45.93,70.75-56,76.15l-1.74.93-2,.08c-19.8.87-87.45-21.29-129.48-78.59A186,186,0,0,1,997.91,482.71Zm100.75,183.48c-9.35-20.7,19.74-32.06,41.32-33.47h0c9.5-.62,17.55.69,20.21,4h0a4,4,0,0,1,.59.95C1166.34,650,1115,702.53,1098.66,666.19ZM991.94,747.84c0-38.48,18.15-61,50.09-61h32c18.16,0,37.4,8,39.94,28.32,3.64-22.14,20.7-29.77,40.31-29.77H1196c31.94,0,50.1,24.69,50.1,63.18v65.71H991.94Zm254.14,307.5H1135.71v48.29h110.37v42.12H991.94v-42.12h106v-48.29h-106v-42.1h254.14Zm2.9-140.86c0,38.48-14.15,63.18-53.72,63.18H991.94V935.54h196.77c18.17,0,23.24-8,23.24-21.79S1206.88,892,1188.71,892H991.94V849.86h203.32c39.21,0,53.72,24.68,53.72,63.17Z" transform="translate(-220.25 -303.36)"/><path class="cls-3" d="M1077.26,729h-29.41c-13.44,0-19.61,7.62-19.61,19.61v23.6h68.62v-23.6C1096.86,736.58,1090.68,729,1077.26,729Z" transform="translate(-220.25 -303.36)"/></svg>