<svg id="Layer_1" data-name="Layer 1" xmlns="http://www.w3.org/2000/svg" viewBox="0 0 1059.98 980.67"><defs><style>.cls-1{fill:#5f82c0;}.cls-2{fill:#ecb941;}.cls-3{fill:#982e22;}</style></defs><title>Logo 2</title><path class="cls-1" d="M377.3,621.79h-1.8c-93.64,0-155.49,38-155.49,127.87v362.81c0,94.18,61.85,127.86,155.49,127.86h1.8c93.64,0,155.49-34.56,155.49-127.86V987.22H430.33v109.69c0,42.36-21.23,55.3-53.9,55.3s-53.9-12.94-53.9-55.3V765.22c0-42.36,21.18-55.31,53.9-55.31s53.9,13,53.9,55.31v95H532.79V749.66C532.79,659.8,470.94,621.79,377.3,621.79Z" transform="translate(-220.01 -259.67)"/><path class="cls-1" d="M501.24,259.68H251.57A31.56,31.56,0,0,0,220,291.24v115.4a44.38,44.38,0,0,1,33.47-16.82,61,61,0,0,1,60.61-54.67,60.12,60.12,0,0,1,22.71,4.39,60.92,60.92,0,0,1,102.93,17.77,52.83,52.83,0,0,1,68.74,43.07A44.3,44.3,0,0,1,532.8,416V291.24A31.56,31.56,0,0,0,501.24,259.68Z" transform="translate(-220.01 -259.67)"/><path class="cls-1" d="M254.79,401.88a32.34,32.34,0,1,0,12.34,62.24l5.45-2.25,2.38,5.39a32.37,32.37,0,0,0,29.6,19.31,32,32,0,0,0,20.34-7.2l4.4-3.57,3.84,4.16a67.66,67.66,0,0,0,49.55,21.7,66.72,66.72,0,0,0,41.76-14.51l3.26-2.58,3.58,2.12A32.3,32.3,0,0,0,475.84,475l2.83-4.91,5.08,2.5A32,32,0,0,0,498,475.88a32.33,32.33,0,0,0,4.09-64.41l-5.07-.64-.21-5.1a40.71,40.71,0,0,0-58.23-35L432,373.91l-1.86-7.06a48.85,48.85,0,0,0-86.68-16.32l-3,4.12-4.56-2.28a48.35,48.35,0,0,0-21.81-5.14A48.91,48.91,0,0,0,265.24,396v6.87l-6.72-.77A34.62,34.62,0,0,0,254.79,401.88Z" transform="translate(-220.01 -259.67)"/><path class="cls-1" d="M253.07,543.08c-4.61.38-7.86,2.91-7.66,4.94s3.78,4,8.38,3.64,7.86-3,7.66-4.95S257.67,542.69,253.07,543.08Z" transform="translate(-220.01 -259.67)"/><path class="cls-1" d="M316.76,511.52c-6.5.54-11.44,5.58-11,11.2s6.16,9.79,12.65,9.26,11.4-5.58,10.91-11.2S323.25,511,316.76,511.52Z" transform="translate(-220.01 -259.67)"/><path class="cls-1" d="M283.07,529c-4.94.39-8.63,4.12-8.29,8.29s4.61,7.17,9.5,6.78,8.63-4.12,8.29-8.28S288,528.63,283.07,529Z" transform="translate(-220.01 -259.67)"/><path class="cls-1" d="M498,488a44,44,0,0,1-14.69-2.48A44.48,44.48,0,0,1,428.77,499a78.74,78.74,0,0,1-46.09,14.73A79.91,79.91,0,0,1,328,491.94a44.45,44.45,0,0,1-61.56-14.88,42.45,42.45,0,0,1-11.63,1.6A44.28,44.28,0,0,1,220,461.79V540.9a31.55,31.55,0,0,0,31.55,31.55H501.24a31.52,31.52,0,0,0,31.55-31.55V471.1A44.27,44.27,0,0,1,498,488ZM254.18,556.65c-7.27.63-13.38-3-13.76-8.19s4.94-9.79,12.26-10.38,13.38,3,13.81,8.2S261.5,556.07,254.18,556.65Zm30.54-7.56c-7.66.63-14.4-4.46-14.93-11.39s5.19-13,12.84-13.67,14.35,4.46,14.93,11.39S292.38,548.46,284.72,549.09ZM318.84,537c-9.26.78-17.35-5.43-18-13.81s6.25-15.85,15.51-16.63,17.35,5.43,18.08,13.81S328.1,536.19,318.84,537Z" transform="translate(-220.01 -259.67)"/><path class="cls-2" d="M752.17,621.79H593.63v618.54H695.22V1000.89h56.95c92.88,0,154.24-37.13,154.24-130.78V752.57C906.41,658.92,845.05,621.79,752.17,621.79Zm52.6,232.42c0,44.16-22.79,56.52-56.09,56.52H695.22V712h53.46c33.3,0,56.09,12.36,56.09,56.52Z" transform="translate(-220.01 -259.67)"/><path class="cls-2" d="M750,324.08a75.06,75.06,0,0,0-49.34,131.6l1.21,1.07,17.35,60.1h25.45l1.5-43.72.1-2,1.55-1.12,9.21-6.3L738.07,456l-7.9-3.19,7.66-3.79,18-8.91-21.33-8.87-7-2.86,6.3-3.88,22-13.43,3.15,4.75-15.22,11,22.78,9.46,7.81,3.2-7.57,3.78-17.93,8.87,17.69,7.12,6.59,2.72-5.86,4-13.33,9.16,1.45,41.73h25.4l17.36-60.1,1.21-1.07A75,75,0,0,0,750,324.08Zm54,75a54,54,0,0,0-54-53.95V334.26a65,65,0,0,1,64.91,64.86Z" transform="translate(-220.01 -259.67)"/><path class="cls-2" d="M874.85,259.67H754V304.4c-1.31,0-2.62-.09-4-.09s-2.61.05-4,.09V259.67H625.18a31.55,31.55,0,0,0-31.55,31.55V540.9a31.52,31.52,0,0,0,31.55,31.55H742.43c-8.34-2.37-14.3-8.63-14.3-16h43.72c0,7.32-6,13.58-14.3,16h117.3a31.55,31.55,0,0,0,31.56-31.55V291.22A31.58,31.58,0,0,0,874.85,259.67Zm-1.26,72.7L834,355.2c-1.21-2.37-2.57-4.65-4-6.88l39.55-22.83C871,327.72,872.33,330.05,873.59,332.37ZM837.19,289c2.09,1.65,4.12,3.34,6.11,5.09l-29.37,35c-1.94-1.8-4-3.49-6.06-5.09Zm-42.85-23.27c2.48.83,5,1.75,7.42,2.72l-15.61,42.94c-2.42-1-4.94-1.89-7.46-2.66Zm-88.65,0,15.66,43c-2.57.77-5,1.69-7.47,2.66l-15.65-42.94C700.7,267.52,703.17,266.6,705.69,265.77ZM662.79,289l29.38,35c-2.14,1.6-4.12,3.29-6.11,5.09l-29.33-35C658.67,292.38,660.71,290.69,662.79,289Zm-32.42,36.45,39.55,22.83c-1.41,2.23-2.72,4.51-3.93,6.88l-39.6-22.88C627.65,330,629,327.72,630.37,325.49Zm-18,101.93c-.53-2.56-1-5.18-1.35-7.8l45-7.95c.34,2.67.82,5.24,1.4,7.81ZM656,386.56l-45-7.9c.39-2.66.87-5.23,1.36-7.85l45.07,7.95C656.83,381.33,656.35,384,656,386.56Zm125,167.62H719V543.27h62.09Zm0-13.19H719v-10.9h62.09Zm26.66-78.13L789,527.76H711l-18.71-64.95a86,86,0,1,1,115.46.05Zm79.93-35.44-45-7.94c.58-2.57,1-5.14,1.36-7.81l45,7.95C888.62,422.24,888.18,424.86,887.65,427.42ZM844,386.56c-.34-2.61-.78-5.23-1.36-7.8l45-7.95c.53,2.62,1,5.19,1.36,7.85Z" transform="translate(-220.01 -259.67)"/><polygon class="cls-3" points="747.18 859.2 877.67 859.2 877.67 924.05 747.18 924.05 747.18 980.67 1059.97 980.67 1059.97 924.05 924.15 924.05 924.15 859.2 1059.97 859.2 1059.97 802.59 747.18 802.59 747.18 859.2"/><path class="cls-3" d="M1280,706.67c0-51.67-22.35-84.88-61.66-84.88h-51.38c-24.14,0-45.12,10.28-49.58,40-3.15-27.34-26.81-38.05-49.15-38.05h-39.36c-39.31,0-61.66,30.2-61.66,81.92V795H1280Zm-183.66,31.75h-84.44V706.67c0-16.1,7.61-26.32,24.14-26.32h36.21c16.53,0,24.09,10.22,24.09,26.32Zm139,0h-95.15V704.73c0-16.09,7.61-26.32,24.14-26.32h46.92c16.53,0,24.09,10.23,24.09,26.32Z" transform="translate(-220.01 -259.67)"/><path class="cls-3" d="M1213.86,842.77H967.2v56.58h238.62c22.34,0,28.59,10.73,28.59,29.27s-6.25,29.27-28.59,29.27H967.2v56.58h246.66c48.7,0,66.13-33.17,66.13-84.87v-2C1280,875.94,1262.12,842.77,1213.86,842.77Z" transform="translate(-220.01 -259.67)"/><path class="cls-3" d="M1248.43,259.68H998.76a31.56,31.56,0,0,0-31.56,31.56V540.91a31.56,31.56,0,0,0,31.56,31.56h191.67q-4.38-17.93-22.61-37.92c-1.12,8.29-6.85,18.73-12.73,24.33-4.19,4-8.66,6-13,6s-8.36-1.91-12-5.73c-6.76-7.1-5.56-16.33,3.22-24.68a51.39,51.39,0,0,1,16-10c-13.41-2.37-34.44-9.45-56.38-23.83-23.71-15.55-54.77-44-68.06-91.4-8.37-29.84-6.11-60.76,6.36-87.08,12.58-26.54,34-45.23,60.38-52.62,54.15-15.19,112.31,22.77,129.66,84.61,13.56,48.34,1.83,88.83-10.4,114.3A165.15,165.15,0,0,1,1182.66,510c8.59-1.26,19.21-.68,25.44,5,3,2.69,6.12,7.61,4.35,15.79-1.68,7.73-7.4,12-15.76,12a31,31,0,0,1-6.46-.74,42.49,42.49,0,0,1-4.86-1.39q11.87,16.36,15,31.85h48A31.56,31.56,0,0,0,1280,540.91V291.24A31.56,31.56,0,0,0,1248.43,259.68Z" transform="translate(-220.01 -259.67)"/><path class="cls-3" d="M1202.94,528.74c.86-4-.1-6.24-3.32-7.8-7.63-3.7-21.45-.89-25.48,1.7,2.87,3.66,14.83,10.89,23.39,10.35C1201.53,532.73,1202.49,530.79,1202.94,528.74Z" transform="translate(-220.01 -259.67)"/><path class="cls-3" d="M1211.88,356.78c-13.56-48.34-54-80.86-95.93-80.86a80.34,80.34,0,0,0-21.73,3c-23.61,6.63-42.86,23.47-54.22,47.43-11.46,24.19-13.52,52.7-5.78,80.28,12.47,44.47,41.7,71.26,64,85.89,25.46,16.69,50.9,23.61,60.79,23.18l1.62-.07,1.44-.77C1178.74,505.89,1235.53,441.09,1211.88,356.78Z" transform="translate(-220.01 -259.67)"/><path class="cls-3" d="M1136.67,545.57c-2,3.45-1,5.34.48,6.86,2.81,3,5.21,3.42,8.32,1.63,7.35-4.23,12.78-17.25,12.9-22C1153.74,532.35,1141,538.19,1136.67,545.57Z" transform="translate(-220.01 -259.67)"/></svg>