<svg id="Layer_1" data-name="Layer 1" xmlns="http://www.w3.org/2000/svg" viewBox="0 0 910 1057.7"><defs><style>.cls-1{fill:#982e22;}.cls-2{fill:#5f82c0;}.cls-3{fill:#ecb941;}</style></defs><title>CP HUB Extra one</title><polygon class="cls-1" points="648.3 960.31 756.23 960.31 756.23 1009.47 648.3 1009.47 648.3 1052.35 907.04 1052.35 907.04 1009.47 794.67 1009.47 794.67 960.31 907.04 960.31 907.04 917.43 648.3 917.43 648.3 960.31"/><path class="cls-1" d="M1150.3,972.25h-207v42.88h200.34c18.48,0,23.66,8.13,23.66,22.18s-5.18,22.17-23.66,22.17H943.3v42.88h207c40.28,0,54.7-25.13,54.7-64.31v-1.48C1205,997.39,1190.21,972.25,1150.3,972.25Z" transform="translate(-295 -221.15)"/><path class="cls-1" d="M1202,869.13c0-39.18-18.48-64.31-51-64.31h-42.5c-20,0-37.34,7.76-41,30.31-2.59-20.7-22.18-28.83-40.66-28.83H994.31c-32.53,0-51,22.91-51,62.09V936H1202Zm-151.92,24H980.26v-24c0-12.2,6.29-20,20-20h29.94c13.68,0,20,7.76,20,20Zm115,0h-78.73V867.65c0-12.2,6.28-20,20-20h38.81c13.68,0,20,7.76,20,20Z" transform="translate(-295 -221.15)"/><path class="cls-1" d="M1068.83,451.91H1104l-6.14-23c9.79,5.42,19.1,7.45,27,7.45,8.46,0,15.32-2.35,19.43-5.42a15.79,15.79,0,0,0,.82-24.07c-5.19-4.51-15.71-8.17-28.9-6.5,21.39-21.92,42.42-54.87,42.42-90,0-57.25-30-88.11-86.64-89.22h-1.47c-56.66,1.11-86.61,32-86.61,89.22,0,35.17,21,68.12,42.39,90-13.19-1.64-23.74,2.06-29,6.63a15.34,15.34,0,0,0-5,12.18,15.6,15.6,0,0,0,6.11,11.89c4.05,3,10.84,5.29,19.23,5.29,7.87,0,17.18-2,27-7.42l-6.14,22.93h20.67c.23,9.54,4.08,22.89,18.78,37.82h14.5C1073.53,474.12,1069.12,460.6,1068.83,451.91Zm69.82-37.56a6,6,0,0,1-.39,8.89c-3.5,2.58-20,8.36-41-6.05C1119.35,404.42,1135.32,411.45,1138.65,414.35Zm-134.58,8.85a5.58,5.58,0,0,1-2.09-4.34,5.67,5.67,0,0,1,1.79-4.54c1.86-1.6,7.68-4.54,16.36-4.54,6.76,0,15.29,1.8,25,7.41C1024.09,431.6,1007.63,425.82,1004.07,423.2Zm47.09,18.91,5.81-21.68,1.64-6-.3-.23-2.71-1.73c-1.27-.82-2.58-1.74-3.92-2.71l-.23-.14c-25.31-18.32-57.8-58.75-57.8-99.21,0-52.42,25.18-78.41,77.23-79.42h.89c51.79,1,77,27,77,79.42,0,40.72-33,81.38-58.32,99.51-1.24.91-2.49,1.76-3.69,2.55l-2.35,1.5-.66.42v0l1.63,6,5.82,21.72Z" transform="translate(-295 -221.15)"/><path class="cls-1" d="M980.81,697.53h7.84c43.31-16.85,80.8-31.58,122.21-69.33,20.77-19,31-39.94,29.49-60.58-1.6-22.21-16.72-44.06-42.56-61.56a133.35,133.35,0,0,1-20-16.33h-97A37.3,37.3,0,0,0,943.52,527V660.23A37.29,37.29,0,0,0,980.81,697.53Z" transform="translate(-295 -221.15)"/><path class="cls-1" d="M1150.11,566.9c1.73,23.77-9.57,47.45-32.66,68.51-34.91,31.88-68.09,48.24-102.25,62.12h152.29a37.29,37.29,0,0,0,37.29-37.3V527a37.3,37.3,0,0,0-37.29-37.29h-75.15a133.63,133.63,0,0,0,10.94,8.19C1131.66,517.16,1148.28,541.65,1150.11,566.9Z" transform="translate(-295 -221.15)"/><path class="cls-2" d="M583.73,629.53c-2.91-13.71-13.78-26.19-27.47-35.92v10.13c9.83,7.9,17.34,17.34,19.47,27.46,3.75,18-10.26,22.73-11.83,23.22l-6.49,1.86,4.67,4.87c.78.81,19,20.41.49,41.64-9.34,10.71-44.75,42.65-107.71,4.7l-2.74-1.67-2.29,2.32c-.16.17-16.82,17-35.4,16.72-17.73-.16-26.94-19.2-27-19.4l-1.34-2.87-3.13.59c-1.18.23-9.93,1.57-16-5.65h-9.73a25.39,25.39,0,0,0,24.23,14c3.66,6.24,14.4,21.29,32.95,21.46,17.7.29,33.22-11.86,39-16.95,22.56,13.09,41.9,17.76,58,17.76a76.18,76.18,0,0,0,57.38-25.66c17.63-20.19,8.42-39.68,2.71-48.21C578.93,655.66,587.19,646.09,583.73,629.53Z" transform="translate(-295 -221.15)"/><path class="cls-2" d="M447.15,770.39c12.09,0,22-8.92,22-19.89s-9.86-19.92-22-19.92-21.94,8.95-21.94,19.92S435,770.39,447.15,770.39Zm0-33.28c8.49,0,15.42,6,15.42,13.39s-6.93,13.36-15.42,13.36-15.41-6-15.41-13.36S438.66,737.11,447.15,737.11Z" transform="translate(-295 -221.15)"/><path class="cls-2" d="M419.69,766c0-9-8.13-16.36-18.16-16.36S383.37,757,383.37,766s8.13,16.4,18.16,16.4S419.69,775.09,419.69,766Zm-29.79,0c0-5.42,5.23-9.83,11.63-9.83s11.63,4.41,11.63,9.83-5.23,9.87-11.63,9.87S389.9,771.5,389.9,766Z" transform="translate(-295 -221.15)"/><path class="cls-2" d="M378.15,776.82c0-6.79-7.48-12.15-17-12.15s-17.05,5.36-17.05,12.15S351.56,789,361.13,789,378.15,783.65,378.15,776.82Zm-27.53,0c0-2.64,4.47-5.62,10.51-5.62s10.49,3,10.49,5.62-4.48,5.62-10.49,5.62S350.62,779.47,350.62,776.82Z" transform="translate(-295 -221.15)"/><path class="cls-2" d="M359.73,662.29c-9.05-2.55-22.37-8.82-24.3-24.13-2-15.55,16.23-26,24.76-30-2-4.6-4.45-12.41-2.39-20.51,1.86-7.31,6.86-13.22,14.83-17.57,13.39-7.34,27.07-8.71,38.53-3.88a34.18,34.18,0,0,1,17.77,17.14c4.08-3.78,10.58-8.1,18.55-7.64,8.92.46,14.24,6.93,17.08,12.12A49.41,49.41,0,0,1,503,573c15.48.81,36.48,8.62,53.26,20.57V527A37.32,37.32,0,0,0,519,489.73H332.26A37.3,37.3,0,0,0,295,527V660.23a37.28,37.28,0,0,0,37.26,37.3h24.92a38.49,38.49,0,0,1-2.12-5.16C350.68,678.85,354.67,668.59,359.73,662.29Z" transform="translate(-295 -221.15)"/><path class="cls-2" d="M466.78,597.73l-5,7.51-2.35-8.69c0-.13-3.49-12.25-12.41-12.74s-16.16,9.41-16.23,9.51l-4.93,7-2.32-8.29c-2.48-8.69-8-15.22-15.51-18.39-9.15-3.82-20.31-2.58-31.48,3.53-5.91,3.23-9.54,7.41-10.81,12.44-2.29,9,3.46,18.22,3.49,18.29l2.74,4.24-4.73,1.8c-7.05,2.68-25.11,12-23.71,23.15,2.06,16.46,25.05,18.62,25.28,18.62l12.67,1.08-10.94,6.5c-.52.32-13.52,8.55-7.71,26.55a22.28,22.28,0,0,0,4.08,7.64H519a37.3,37.3,0,0,0,37.29-37.3V603.74c-16-12.94-38.27-21.72-53.72-22.57A42,42,0,0,0,466.78,597.73Z" transform="translate(-295 -221.15)"/><path class="cls-2" d="M426.3,799.46H425c-71,0-117.84,29.46-117.84,99.09v281.21c0,73,46.87,99.09,117.84,99.09h1.34c71,0,117.84-26.78,117.84-99.09v-97.08H466.47v85c0,32.81-16.06,42.85-40.84,42.85s-40.84-10-40.84-42.85V910.6c0-32.8,16.07-42.85,40.84-42.85s40.84,10,40.84,42.85v73.65h77.67v-85.7C544.14,828.92,497.27,799.46,426.3,799.46Z" transform="translate(-295 -221.15)"/><path class="cls-3" d="M680.77,491.16a72.18,72.18,0,0,0,40.72,64.67l2.58,1.24,2.61,38.4h19.14V555.86l1.11-1.18,10.91-11.39-27.79-10.45,25.5-13.53-29.09-8.42,16.72-21.16H680.8C680.77,490.22,680.77,490.67,680.77,491.16Z" transform="translate(-295 -221.15)"/><path class="cls-3" d="M740.4,506.41l36.77,10.65-27.3,14.5,22.4,8.46L754,559.12v36.35h19.07L775.57,559l2.91-1.15A72,72,0,0,0,824,491.16c0-.49,0-.94,0-1.43H753.56Z" transform="translate(-295 -221.15)"/><path class="cls-3" d="M843.24,489.73H833.8c0,.49,0,.94,0,1.43A82,82,0,0,1,785,565.82l-2.75,39.45H717.54l-2.84-41.9A82,82,0,0,1,671,491.16c0-.49,0-.94,0-1.43H656.53A37.3,37.3,0,0,0,619.27,527V660.23a37.28,37.28,0,0,0,37.26,37.3H843.24a37.3,37.3,0,0,0,37.29-37.3V527A37.32,37.32,0,0,0,843.24,489.73ZM763,674.11H736.84v-9.79H763Zm16.26-17.21H720.54v-9.8h58.69Zm0-17.21H720.54v-9.8h58.69Zm0-17.21H720.54v-9.8h58.69Z" transform="translate(-295 -221.15)"/><path class="cls-3" d="M675.87,455.22l-71-29.43-3.75,9,71.09,29.45A82.22,82.22,0,0,1,675.87,455.22Z" transform="translate(-295 -221.15)"/><path class="cls-3" d="M694.88,429.22l-54-54L634,382.19l54.09,54.12A79.71,79.71,0,0,1,694.88,429.22Z" transform="translate(-295 -221.15)"/><path class="cls-3" d="M722.44,412.11l-28.87-69.73-9,3.76,29,69.95A78.82,78.82,0,0,1,722.44,412.11Z" transform="translate(-295 -221.15)"/><path class="cls-3" d="M754.81,406.69V332.16H745V407c2.45-.23,4.9-.33,7.41-.33C753.24,406.62,754,406.62,754.81,406.69Z" transform="translate(-295 -221.15)"/><path class="cls-3" d="M815.26,346.14l-9-3.76L778,410.54a84.47,84.47,0,0,1,9.15,3.53Z" transform="translate(-295 -221.15)"/><path class="cls-3" d="M814.37,433.63l51.41-51.44-6.93-6.92-51.56,51.57A85.65,85.65,0,0,1,814.37,433.63Z" transform="translate(-295 -221.15)"/><path class="cls-3" d="M832,462.47l66.68-27.63-3.75-9-66.79,27.69A87.16,87.16,0,0,1,832,462.47Z" transform="translate(-295 -221.15)"/><path class="cls-3" d="M751.57,804.82H630.38v468.67h77.67V1092.05h43.52c71,0,117.84-28.12,117.84-99.09V903.91C869.41,832.94,822.54,804.82,751.57,804.82Zm40.17,176.09c0,33.47-17.41,42.85-42.85,42.85H708.05V873.11h40.84c25.44,0,42.85,9.37,42.85,42.85Z" transform="translate(-295 -221.15)"/></svg>