<svg id="Layer_1" data-name="Layer 1" xmlns="http://www.w3.org/2000/svg" viewBox="0 0 1060 960.44"><defs><style>.cls-1{fill:#5f82c0;}.cls-2{fill:#ecb941;}.cls-3{fill:#982e22;}</style></defs><title>Logo 1</title><path class="cls-1" d="M254.7,404.7A63.24,63.24,0,0,1,317.52,348a62.43,62.43,0,0,1,23.54,4.55A63.15,63.15,0,0,1,447.76,371,54.77,54.77,0,0,1,519,415.63a46,46,0,0,1,25.22,16.15V302.5a32.72,32.72,0,0,0-32.71-32.71H252.71A32.72,32.72,0,0,0,220,302.5V422.13A45.94,45.94,0,0,1,254.7,404.7Z" transform="translate(-220 -269.78)"/><path class="cls-1" d="M256.06,417.19a33.53,33.53,0,1,0,12.78,64.52l5.65-2.34L277,485a33.55,33.55,0,0,0,30.68,20,33.15,33.15,0,0,0,21.09-7.48l4.55-3.69,4,4.31a70.12,70.12,0,0,0,51.35,22.49,69.18,69.18,0,0,0,43.3-15l3.38-2.67,3.7,2.2A33.5,33.5,0,0,0,485.19,493l2.92-5.09,5.27,2.6a33.21,33.21,0,0,0,14.79,3.44,33.52,33.52,0,0,0,4.24-66.77l-5.25-.66-.22-5.28a42.21,42.21,0,0,0-60.36-36.26l-6.83,3.27-1.93-7.32A50.63,50.63,0,0,0,348,364l-3.13,4.27-4.73-2.37a50.15,50.15,0,0,0-22.6-5.33,50.7,50.7,0,0,0-50.64,50.55v7.13l-7-.8A34.36,34.36,0,0,0,256.06,417.19Z" transform="translate(-220 -269.78)"/><path class="cls-1" d="M253.12,564.63c-4.57.4-7.79,2.92-7.65,4.92s3.78,4,8.35,3.61,7.79-2.91,7.61-4.91S257.69,564.24,253.12,564.63Z" transform="translate(-220 -269.78)"/><path class="cls-1" d="M316.3,533.35c-6.49.52-11.36,5.53-10.88,11.1s6.09,9.74,12.53,9.18,11.31-5.53,10.88-11.1S322.74,532.79,316.3,533.35Z" transform="translate(-220 -269.78)"/><path class="cls-1" d="M508.17,506.42A46,46,0,0,1,493,503.85a45.91,45.91,0,0,1-56.6,14,81.41,81.41,0,0,1-47.77,15.27A82.67,82.67,0,0,1,332,510.55a46,46,0,0,1-63.78-15.4A47.22,47.22,0,0,1,256,496.76a46,46,0,0,1-36-17.44v82A32.67,32.67,0,0,0,252.73,594H511.52a32.7,32.7,0,0,0,32.72-32.67V489A46,46,0,0,1,508.17,506.42Zm-254,71.7c-7.22.61-13.27-3-13.7-8.13s4.91-9.71,12.18-10.32,13.27,3,13.7,8.14S261.48,577.51,254.21,578.12Zm30.28-7.52c-7.61.65-14.27-4.44-14.83-11.27s5.17-13,12.79-13.58,14.22,4.44,14.79,11.27S292.11,570,284.49,570.6Zm33.89-12c-9.18.78-17.22-5.4-17.92-13.71s6.22-15.75,15.4-16.49,17.23,5.4,17.93,13.71S327.57,557.85,318.38,558.59Z" transform="translate(-220 -269.78)"/><path class="cls-1" d="M282.84,550.71c-4.87.39-8.53,4.09-8.22,8.18s4.61,7.18,9.48,6.74,8.53-4,8.18-8.17S287.71,550.28,282.84,550.71Z" transform="translate(-220 -269.78)"/><path class="cls-1" d="M511.52,637.68H252.73A32.67,32.67,0,0,0,220,670.36V1197.5a32.71,32.71,0,0,0,32.72,32.72H511.52a32.74,32.74,0,0,0,32.72-32.72V670.36A32.71,32.71,0,0,0,511.52,637.68ZM521,871.06H430V786.7c0-37.59-18.84-49.08-47.86-49.08s-47.85,11.49-47.85,49.08v294.51c0,37.59,18.83,49.07,47.85,49.07S430,1118.8,430,1081.21V983.79h91V1095c0,82.84-54.91,113.51-138,113.51h-1.57c-83.14,0-138.09-29.89-138.09-113.51V772.86c0-79.75,54.95-113.47,138.09-113.47h1.57c83.14,0,138.05,33.72,138.05,113.47Z" transform="translate(-220 -269.78)"/><path class="cls-2" d="M750,336.52A77.8,77.8,0,0,0,698.86,473l1.22,1.09,18,62.3h26.37L746,491.06l.08-2.13,1.66-1.13,9.52-6.57-19.66-8L729.45,470l7.92-3.91L756,456.78l-22.14-9.18-7.23-3,6.53-4,22.84-14,3.27,4.92L743.5,443l23.63,9.83,8.09,3.35L767.39,460l-18.58,9.18,18.32,7.44L774,479.4l-6.09,4.22L754,493.11l1.52,43.24h26.37l18-62.26,1.26-1.13A77.8,77.8,0,0,0,750,336.52Zm56,77.84a56,56,0,0,0-56-55.95V347.09a67.38,67.38,0,0,1,67.27,67.27Z" transform="translate(-220 -269.78)"/><path class="cls-2" d="M879.38,269.78H754.12v46.38c-1.39,0-2.74-.09-4.14-.09s-2.74.05-4.09.09V269.78H620.59a32.74,32.74,0,0,0-32.72,32.72V561.33A32.7,32.7,0,0,0,620.59,594H742.15c-8.61-2.48-14.79-8.92-14.79-16.53h45.29c0,7.61-6.18,14-14.83,16.53H879.38a32.67,32.67,0,0,0,32.72-32.67V302.5A32.71,32.71,0,0,0,879.38,269.78Zm-1.26,75.36-41,23.66c-1.26-2.43-2.61-4.82-4.09-7.13L874,338C875.42,340.35,876.81,342.7,878.12,345.14Zm-37.73-44.9c2.14,1.69,4.27,3.43,6.31,5.26l-30.45,36.29a79.23,79.23,0,0,0-6.27-5.31Zm-44.46-24.11c2.61.87,5.18,1.79,7.7,2.79l-16.18,44.55c-2.53-1.05-5.09-2-7.71-2.83Zm-91.89,0,16.23,44.55c-2.61.83-5.22,1.78-7.7,2.83l-16.23-44.55C698.86,277.92,701.43,277,704,276.09Zm-44.42,24.1L690,336.48c-2.17,1.65-4.26,3.44-6.31,5.31L653.31,305.5C655.35,303.67,657.44,301.93,659.62,300.19ZM626,338l41,23.67c-1.48,2.31-2.88,4.7-4.14,7.13l-41-23.66C623.16,342.7,624.55,340.35,626,338ZM607.32,443.68c-.52-2.7-1-5.39-1.39-8.09l46.64-8.22c.35,2.69.83,5.43,1.44,8.09Zm45.25-42.33-46.68-8.22c.39-2.75.87-5.44,1.43-8.14L654,393.26Q653.1,397.24,652.57,401.35ZM782.18,575.08H717.83V563.76h64.35Zm0-13.71H717.83V550.06h64.35Zm27.67-81L790.4,547.67H709.57l-19.41-67.31a89.1,89.1,0,1,1,119.69,0Zm82.8-36.72L846,435.46c.56-2.66,1-5.4,1.43-8.09l46.64,8.22C893.69,438.29,893.21,441,892.65,443.68Zm-45.21-42.33q-.59-4.11-1.43-8.09L892.69,385c.52,2.7,1,5.39,1.39,8.14Z" transform="translate(-220 -269.78)"/><path class="cls-2" d="M748.82,739.4H701.37V915.9h47.45c29.57,0,49.79-11,49.79-50.2V789.6C798.61,750.37,778.39,739.4,748.82,739.4Z" transform="translate(-220 -269.78)"/><path class="cls-2" d="M879.38,637.68H620.59a32.71,32.71,0,0,0-32.72,32.68V1197.5a32.74,32.74,0,0,0,32.72,32.72H879.38a32.71,32.71,0,0,0,32.72-32.72V670.36A32.67,32.67,0,0,0,879.38,637.68Zm9.48,242.13c0,83.14-54.47,116.12-136.92,116.12H701.39v212.58H611.15V659.39H751.94c82.45,0,136.92,32.94,136.92,116.08Z" transform="translate(-220 -269.78)"/><path class="cls-3" d="M988.47,594h198.69c-3-12.38-10.86-25.52-23.44-39.31-1.17,8.6-7.1,19.42-13.19,25.22-4.35,4.14-9,6.21-13.48,6.21s-8.66-2-12.43-5.94c-7-7.36-5.76-16.92,3.33-25.58a53.45,53.45,0,0,1,16.56-10.35c-13.9-2.46-35.7-9.8-58.44-24.71-24.58-16.11-56.78-45.63-70.55-94.74-8.68-30.93-6.34-63,6.59-90.26,13-27.51,35.27-46.89,62.59-54.55,56.13-15.74,116.42,23.6,134.4,87.71,14.06,50.1,1.9,92.08-10.78,118.47a171.36,171.36,0,0,1-29.21,43.11c8.9-1.31,19.9-.71,26.36,5.16,3.07,2.79,6.35,7.89,4.51,16.37-1.74,8-7.67,12.38-16.34,12.38a31.47,31.47,0,0,1-6.7-.77,43.9,43.9,0,0,1-5-1.43q12.3,17,15.58,33h49.79A32.72,32.72,0,0,0,1280,561.31V302.5a32.72,32.72,0,0,0-32.71-32.71H988.47a32.72,32.72,0,0,0-32.71,32.71V561.31A32.72,32.72,0,0,0,988.47,594Z" transform="translate(-220 -269.78)"/><path class="cls-3" d="M1200.12,548.69c.9-4.12-.1-6.46-3.44-8.08-7.91-3.84-22.24-.92-26.41,1.76,3,3.79,15.37,11.29,24.25,10.73C1198.66,552.83,1199.66,550.82,1200.12,548.69Z" transform="translate(-220 -269.78)"/><path class="cls-3" d="M1209.39,370.44c-14.05-50.1-55.92-83.82-99.43-83.82a83.56,83.56,0,0,0-22.54,3.1C1063,296.58,1043,314,1031.23,338.88c-11.89,25.08-14,54.63-6,83.22,12.93,46.09,43.23,73.86,66.37,89,26.39,17.3,52.77,24.47,63,24l1.68-.07,1.48-.8C1175,525,1233.9,457.84,1209.39,370.44Z" transform="translate(-220 -269.78)"/><path class="cls-3" d="M1131.43,566.14c-2.11,3.57-1,5.53.5,7.11,2.91,3,5.4,3.54,8.62,1.69,7.62-4.38,13.25-17.88,13.38-22.84C1149.12,552.43,1135.94,558.49,1131.43,566.14Z" transform="translate(-220 -269.78)"/><path class="cls-3" d="M1072.24,711.35h-32.13c-14.68,0-21.41,9.1-21.41,23.39v28.15h75V734.74C1093.68,720.45,1086.93,711.35,1072.24,711.35Z" transform="translate(-220 -269.78)"/><path class="cls-3" d="M1195.64,709.61H1154c-14.68,0-21.41,9.1-21.41,23.39v29.89h84.49V733C1217.05,718.71,1210.32,709.61,1195.64,709.61Z" transform="translate(-220 -269.78)"/><path class="cls-3" d="M1247.28,637.68H988.45a32.66,32.66,0,0,0-32.67,32.68V1197.5a32.7,32.7,0,0,0,32.67,32.72h258.83A32.73,32.73,0,0,0,1280,1197.5V670.36A32.7,32.7,0,0,0,1247.28,637.68Zm9.44,463h-120.6v57.6h120.6v50.21H979V1158.3h115.86v-57.6H979v-50.25h277.71Zm0-168.07c0,45.94-15.49,75.39-58.69,75.39H979V957.77H1190.9c19.79,0,25.36-9.53,25.36-26s-5.57-26-25.36-26H979V855.57h219c42.86,0,58.69,29.41,58.69,75.36Zm0-119.52H979V733.88c0-45.9,19.84-72.79,54.78-72.79h34.89c19.84,0,40.86,9.53,43.64,33.81,4-26.41,22.62-35.51,44-35.51H1202c34.89,0,54.73,29.42,54.73,75.36Z" transform="translate(-220 -269.78)"/></svg>